<svg width="51" height="50" viewBox="0 0 51 50" fill="none" xmlns="http://www.w3.org/2000/svg">
<rect x="0.899048" width="50" height="50" rx="15" fill="#669FBE"/>
<g clip-path="url(#clip0_254_29)">
<path fill-rule="evenodd" clip-rule="evenodd" d="M34.9945 32.5606C36.9019 29.5648 38.0483 25.8409 38.0483 21.7896C38.0483 11.9792 31.399 4 23.2237 4C15.0484 4 8.39905 11.9792 8.39905 21.7896C8.39905 31.5999 15.0484 39.5791 23.2237 39.5791C26.5998 39.5791 29.705 38.2034 32.2015 35.9145L40.6041 46L43.399 42.6461L34.9945 32.5606ZM23.2237 34.8353C17.2286 34.8353 12.3523 28.9813 12.3523 21.7896C12.3523 14.5978 17.2286 8.74388 23.2237 8.74388C29.2188 8.74388 34.0951 14.5978 34.0951 21.7896C34.0951 28.9813 29.2188 34.8353 23.2237 34.8353Z" fill="#042D6A"/>
</g>
<defs>
<clipPath id="clip0_254_29">
<rect width="35" height="42" fill="white" transform="translate(8.39905 4)"/>
</clipPath>
</defs>
</svg>
